<?xml version="1.0" encoding="UTF-8"?>
<!-- Do not edit this file with editors other than draw.io -->
<!DOCTYPE svg PUBLIC "-//W3C//DTD SVG 1.1//EN" "http://www.w3.org/Graphics/SVG/1.1/DTD/svg11.dtd">
<svg xmlns="http://www.w3.org/2000/svg" style="background: #ffffff; background-color: light-dark(#ffffff, #121212); color-scheme: light dark;" xmlns:xlink="http://www.w3.org/1999/xlink" version="1.1" width="440px" height="80px" viewBox="-0.5 -0.5 440 80" content="&lt;mxfile host=&quot;app.diagrams.net&quot; agent=&quot;Mozilla/5.0 (Windows NT 10.0; Win64; x64) AppleWebKit/537.36 (KHTML, like Gecko) Chrome/137.0.0.0 Safari/537.36 Avast/137.0.0.0&quot; version=&quot;27.2.0&quot;&gt;&#10;  &lt;diagram name=&quot;Page-1&quot; id=&quot;Dnvc_1fZqdnRVlTi9nIa&quot;&gt;&#10;    &lt;mxGraphModel dx=&quot;1042&quot; dy=&quot;535&quot; grid=&quot;1&quot; gridSize=&quot;10&quot; guides=&quot;1&quot; tooltips=&quot;1&quot; connect=&quot;1&quot; arrows=&quot;1&quot; fold=&quot;1&quot; page=&quot;1&quot; pageScale=&quot;1&quot; pageWidth=&quot;850&quot; pageHeight=&quot;1100&quot; background=&quot;#ffffff&quot; math=&quot;0&quot; shadow=&quot;0&quot;&gt;&#10;      &lt;root&gt;&#10;        &lt;mxCell id=&quot;0&quot; /&gt;&#10;        &lt;mxCell id=&quot;1&quot; parent=&quot;0&quot; /&gt;&#10;        &lt;object label=&quot;&quot; id=&quot;xtQlSQTWjYWpAsIyS94J-2&quot;&gt;&#10;          &lt;mxCell style=&quot;shape=mxgraph.cisco.routers.gigabit_switch_atm_tag_router;sketch=0;html=1;pointerEvents=1;dashed=0;fillColor=#036897;strokeColor=#ffffff;strokeWidth=2;verticalLabelPosition=bottom;verticalAlign=top;align=center;outlineConnect=0;&quot; vertex=&quot;1&quot; parent=&quot;1&quot;&gt;&#10;            &lt;mxGeometry x=&quot;250&quot; y=&quot;210&quot; width=&quot;78&quot; height=&quot;78&quot; as=&quot;geometry&quot; /&gt;&#10;          &lt;/mxCell&gt;&#10;        &lt;/object&gt;&#10;        &lt;object label=&quot;&quot; id=&quot;xtQlSQTWjYWpAsIyS94J-3&quot;&gt;&#10;          &lt;mxCell style=&quot;shape=mxgraph.cisco.routers.gigabit_switch_atm_tag_router;sketch=0;html=1;pointerEvents=1;dashed=0;fillColor=#036897;strokeColor=#ffffff;strokeWidth=2;verticalLabelPosition=bottom;verticalAlign=top;align=center;outlineConnect=0;&quot; vertex=&quot;1&quot; parent=&quot;1&quot;&gt;&#10;            &lt;mxGeometry x=&quot;610&quot; y=&quot;210&quot; width=&quot;78&quot; height=&quot;78&quot; as=&quot;geometry&quot; /&gt;&#10;          &lt;/mxCell&gt;&#10;        &lt;/object&gt;&#10;        &lt;object label=&quot;&quot; id=&quot;xtQlSQTWjYWpAsIyS94J-7&quot;&gt;&#10;          &lt;mxCell style=&quot;endArrow=none;html=1;rounded=0;entryX=0;entryY=0.5;entryDx=0;entryDy=0;entryPerimeter=0;&quot; edge=&quot;1&quot; parent=&quot;1&quot; target=&quot;xtQlSQTWjYWpAsIyS94J-3&quot;&gt;&#10;            &lt;mxGeometry width=&quot;50&quot; height=&quot;50&quot; relative=&quot;1&quot; as=&quot;geometry&quot;&gt;&#10;              &lt;mxPoint x=&quot;328&quot; y=&quot;248.5&quot; as=&quot;sourcePoint&quot; /&gt;&#10;              &lt;mxPoint x=&quot;588&quot; y=&quot;248.5&quot; as=&quot;targetPoint&quot; /&gt;&#10;            &lt;/mxGeometry&gt;&#10;          &lt;/mxCell&gt;&#10;        &lt;/object&gt;&#10;      &lt;/root&gt;&#10;    &lt;/mxGraphModel&gt;&#10;  &lt;/diagram&gt;&#10;&lt;/mxfile&gt;&#10;"><defs/><rect fill="#ffffff" width="100%" height="100%" x="0" y="0" style="fill: light-dark(rgb(255, 255, 255), rgb(18, 18, 18));"/><g><g data-cell-id="0"><g data-cell-id="1"><g data-cell-id="xtQlSQTWjYWpAsIyS94J-2"><g><rect x="1" y="1" width="78" height="78" fill="none" stroke="none" pointer-events="all"/><path d="M 79 15.77 C 79 24.19 61.49 31.04 39.75 31.04 C 18.51 31.04 1 24.19 1 15.77 C 1 63.71 1 63.71 1 63.71 C 1 72.14 18.51 79 39.75 79 C 61.49 79 79 72.14 79 63.71 Z M 39.75 31.04 C 61.49 31.04 79 24.19 79 15.77 C 79 7.32 61.49 1 39.75 1 C 18.51 1 1 7.32 1 15.77 C 1 24.19 18.51 31.04 39.75 31.04 Z" fill="#036897" stroke="#ffffff" stroke-width="2" stroke-linejoin="round" stroke-miterlimit="10" pointer-events="all" style="fill: light-dark(rgb(3, 104, 151), rgb(92, 179, 220)); stroke: light-dark(rgb(255, 255, 255), rgb(18, 18, 18));"/><rect x="1" y="1" width="0" height="0" fill="none" stroke="#ffffff" stroke-width="2" pointer-events="all" style="stroke: light-dark(rgb(255, 255, 255), rgb(18, 18, 18));"/><path d="M 42.39 7.32 L 54.6 4.16 L 54.6 9.44 L 51.41 8.9 L 45.57 13.65 L 39.75 12.6 L 46.11 7.86 Z M 48.23 21.55 L 46.11 16.81 L 56.71 14.71 L 55.12 16.29 L 73.17 19.45 L 68.92 22.61 L 50.89 19.45 Z M 37.09 26.29 L 24.88 28.41 L 24.88 23.13 L 28.06 23.67 L 34.43 18.39 L 40.27 18.93 L 33.38 25.25 Z M 31.24 9.96 L 34.43 14.71 L 22.24 17.35 L 24.88 15.23 L 5.78 12.07 L 10.55 8.38 L 28.6 11.54 Z" fill="#ffffff" stroke="none" pointer-events="all" style="fill: light-dark(rgb(255, 255, 255), rgb(18, 18, 18));"/><path d="M 23.29 66.87 L 34.43 66.87 L 48.23 38.42 L 56.71 38.42" fill="none" stroke="#000000" stroke-width="3.16" stroke-miterlimit="10" pointer-events="all" style="stroke: light-dark(rgb(0, 0, 0), rgb(237, 237, 237));"/><path d="M 54.07 33.15 L 54.07 43.16 L 60.44 38.42 Z M 24.88 72.14 L 24.88 62.13 L 18.51 66.87 Z" fill="#000000" stroke="none" pointer-events="all" style="fill: light-dark(rgb(0, 0, 0), rgb(237, 237, 237));"/><path d="M 24.88 72.68 L 24.88 62.65 L 18.51 67.4 Z M 54.6 34.2 L 54.6 44.22 L 60.44 39.48 Z" fill="#ffffff" stroke="none" pointer-events="all" style="fill: light-dark(rgb(255, 255, 255), rgb(18, 18, 18));"/><path d="M 24.88 43.68 L 24.88 33.68 L 18.51 38.42 Z" fill="#000000" stroke="none" pointer-events="all" style="fill: light-dark(rgb(0, 0, 0), rgb(237, 237, 237));"/><path d="M 24.88 44.22 L 24.88 34.2 L 18.51 38.94 Z" fill="#ffffff" stroke="none" pointer-events="all" style="fill: light-dark(rgb(255, 255, 255), rgb(18, 18, 18));"/><path d="M 57.26 66.87 L 47.7 66.87 L 33.38 38.42 L 24.35 38.42" fill="none" stroke="#000000" stroke-width="3.16" stroke-miterlimit="10" pointer-events="all" style="stroke: light-dark(rgb(0, 0, 0), rgb(237, 237, 237));"/><path d="M 58.31 67.93 L 47.7 67.93 L 33.38 38.94 L 22.76 38.94 M 22.76 67.93 L 32.84 67.93 L 47.16 39.48 L 58.31 39.48" fill="none" stroke="#ffffff" stroke-width="3.16" stroke-miterlimit="10" pointer-events="all" style="stroke: light-dark(rgb(255, 255, 255), rgb(18, 18, 18));"/><path d="M 54.07 62.13 L 54.07 72.14 L 60.44 67.4 Z" fill="#000000" stroke="none" pointer-events="all" style="fill: light-dark(rgb(0, 0, 0), rgb(237, 237, 237));"/><path d="M 54.6 62.65 L 54.6 72.68 L 60.44 67.93 Z" fill="#ffffff" stroke="none" pointer-events="all" style="fill: light-dark(rgb(255, 255, 255), rgb(18, 18, 18));"/></g></g><g data-cell-id="xtQlSQTWjYWpAsIyS94J-3"><g><rect x="361" y="1" width="78" height="78" fill="none" stroke="none" pointer-events="all"/><path d="M 439 15.77 C 439 24.19 421.49 31.04 399.75 31.04 C 378.51 31.04 361 24.19 361 15.77 C 361 63.71 361 63.71 361 63.71 C 361 72.14 378.51 79 399.75 79 C 421.49 79 439 72.14 439 63.71 Z M 399.75 31.04 C 421.49 31.04 439 24.19 439 15.77 C 439 7.32 421.49 1 399.75 1 C 378.51 1 361 7.32 361 15.77 C 361 24.19 378.51 31.04 399.75 31.04 Z" fill="#036897" stroke="#ffffff" stroke-width="2" stroke-linejoin="round" stroke-miterlimit="10" pointer-events="all" style="fill: light-dark(rgb(3, 104, 151), rgb(92, 179, 220)); stroke: light-dark(rgb(255, 255, 255), rgb(18, 18, 18));"/><rect x="361" y="1" width="0" height="0" fill="none" stroke="#ffffff" stroke-width="2" pointer-events="all" style="stroke: light-dark(rgb(255, 255, 255), rgb(18, 18, 18));"/><path d="M 402.39 7.32 L 414.6 4.16 L 414.6 9.44 L 411.41 8.9 L 405.57 13.65 L 399.75 12.6 L 406.11 7.86 Z M 408.23 21.55 L 406.11 16.81 L 416.71 14.71 L 415.12 16.29 L 433.17 19.45 L 428.92 22.61 L 410.89 19.45 Z M 397.09 26.29 L 384.88 28.41 L 384.88 23.13 L 388.06 23.67 L 394.43 18.39 L 400.27 18.93 L 393.38 25.25 Z M 391.24 9.96 L 394.43 14.71 L 382.24 17.35 L 384.88 15.23 L 365.78 12.07 L 370.55 8.38 L 388.6 11.54 Z" fill="#ffffff" stroke="none" pointer-events="all" style="fill: light-dark(rgb(255, 255, 255), rgb(18, 18, 18));"/><path d="M 383.29 66.87 L 394.43 66.87 L 408.23 38.42 L 416.71 38.42" fill="none" stroke="#000000" stroke-width="3.16" stroke-miterlimit="10" pointer-events="all" style="stroke: light-dark(rgb(0, 0, 0), rgb(237, 237, 237));"/><path d="M 414.07 33.15 L 414.07 43.16 L 420.44 38.42 Z M 384.88 72.14 L 384.88 62.13 L 378.51 66.87 Z" fill="#000000" stroke="none" pointer-events="all" style="fill: light-dark(rgb(0, 0, 0), rgb(237, 237, 237));"/><path d="M 384.88 72.68 L 384.88 62.65 L 378.51 67.4 Z M 414.6 34.2 L 414.6 44.22 L 420.44 39.48 Z" fill="#ffffff" stroke="none" pointer-events="all" style="fill: light-dark(rgb(255, 255, 255), rgb(18, 18, 18));"/><path d="M 384.88 43.68 L 384.88 33.68 L 378.51 38.42 Z" fill="#000000" stroke="none" pointer-events="all" style="fill: light-dark(rgb(0, 0, 0), rgb(237, 237, 237));"/><path d="M 384.88 44.22 L 384.88 34.2 L 378.51 38.94 Z" fill="#ffffff" stroke="none" pointer-events="all" style="fill: light-dark(rgb(255, 255, 255), rgb(18, 18, 18));"/><path d="M 417.26 66.87 L 407.7 66.87 L 393.38 38.42 L 384.35 38.42" fill="none" stroke="#000000" stroke-width="3.16" stroke-miterlimit="10" pointer-events="all" style="stroke: light-dark(rgb(0, 0, 0), rgb(237, 237, 237));"/><path d="M 418.31 67.93 L 407.7 67.93 L 393.38 38.94 L 382.76 38.94 M 382.76 67.93 L 392.84 67.93 L 407.16 39.48 L 418.31 39.48" fill="none" stroke="#ffffff" stroke-width="3.16" stroke-miterlimit="10" pointer-events="all" style="stroke: light-dark(rgb(255, 255, 255), rgb(18, 18, 18));"/><path d="M 414.07 62.13 L 414.07 72.14 L 420.44 67.4 Z" fill="#000000" stroke="none" pointer-events="all" style="fill: light-dark(rgb(0, 0, 0), rgb(237, 237, 237));"/><path d="M 414.6 62.65 L 414.6 72.68 L 420.44 67.93 Z" fill="#ffffff" stroke="none" pointer-events="all" style="fill: light-dark(rgb(255, 255, 255), rgb(18, 18, 18));"/></g></g><g data-cell-id="xtQlSQTWjYWpAsIyS94J-7"><g><path d="M 79 39.5 L 361 40" fill="none" stroke="#000000" stroke-miterlimit="10" pointer-events="stroke" style="stroke: light-dark(rgb(0, 0, 0), rgb(255, 255, 255));"/></g></g></g></g></g></svg>